<?xml version="1.0" standalone="no"?>
<!DOCTYPE svg PUBLIC "-//W3C//DTD SVG 20010904//EN"
 "http://www.w3.org/TR/2001/REC-SVG-20010904/DTD/svg10.dtd">
<svg version="1.0" xmlns="http://www.w3.org/2000/svg"
 width="256.000000pt" height="256.000000pt" viewBox="0 0 256.000000 256.000000"
 preserveAspectRatio="xMidYMid meet">
<metadata>
Created by potrace 1.16, written by Peter Selinger 2001-2019
</metadata>
<g transform="translate(0.000000,256.000000) scale(0.100000,-0.100000)"
fill="#000000" stroke="none">
<path d="M1045 2430 c-49 -10 -119 -28 -154 -40 -61 -20 -190 -75 -199 -85 -2
-2 38 -49 89 -105 74 -79 98 -99 114 -95 256 73 470 79 701 20 l98 -25 30 38
c17 20 56 64 88 98 32 33 58 64 58 68 0 9 -109 59 -191 86 -180 61 -446 78
-634 40z"/>
<path d="M2276 1940 c-11 -35 -89 -307 -93 -326 -3 -12 10 -51 30 -90 74 -149
110 -284 123 -471 6 -87 4 -110 -14 -170 -81 -266 -429 -537 -821 -640 -128
-34 -290 -36 -404 -5 -397 108 -783 402 -864 660 -34 107 14 382 103 594 l46
107 -22 58 c-12 32 -34 105 -49 163 -16 58 -32 105 -37 105 -13 0 -91 -131
-124 -211 -59 -143 -81 -246 -87 -410 -7 -177 5 -276 49 -414 118 -372 417
-667 798 -788 133 -42 225 -56 375 -56 150 0 241 14 375 56 370 117 662 398
789 762 108 307 73 687 -88 967 -58 101 -78 128 -85 109z"/>
<path d="M642 1438 c-7 -7 -12 -38 -12 -74 l0 -62 47 -31 c65 -43 192 -82 291
-88 l82 -6 0 25 c0 34 -57 89 -149 143 -142 83 -236 116 -259 93z"/>
<path d="M1835 1429 c-139 -57 -311 -185 -303 -227 8 -41 187 -18 308 39 92
43 110 62 110 118 0 98 -18 109 -115 70z"/>
<path d="M1164 995 c-12 -18 -15 -39 -12 -76 6 -58 44 -105 109 -134 34 -16
39 -22 39 -51 0 -21 -9 -44 -22 -60 -23 -26 -23 -26 -130 -20 -70 5 -108 4
-108 -3 0 -5 5 -13 10 -16 6 -3 10 -15 10 -25 0 -10 7 -23 17 -28 9 -5 21 -24
27 -43 19 -56 36 -48 36 18 l0 58 175 0 175 0 0 -52 c0 -66 16 -77 37 -24 9
23 22 41 28 41 7 0 16 11 19 24 3 13 9 32 12 41 6 15 -2 16 -95 10 -101 -8
-101 -8 -126 19 -16 18 -25 39 -25 60 0 28 5 36 29 46 53 21 84 64 92 127 7
49 6 62 -10 83 -17 24 -23 25 -144 28 -125 3 -126 2 -143 -23z"/>
</g>
</svg>
